<mxfile host="app.diagrams.net" modified="2022-07-14T09:02:54.636Z" agent="5.0 (Windows NT 10.0; Win64; x64) AppleWebKit/537.36 (KHTML, like Gecko) Chrome/103.0.0.0 Safari/537.36" etag="gVdxa5YbkGBS6xCeng8Y" version="20.0.4" type="github">
  <diagram id="C5RBs43oDa-KdzZeNtuy" name="Page-1">
    <mxGraphModel dx="2831" dy="762" grid="1" gridSize="10" guides="1" tooltips="1" connect="1" arrows="1" fold="1" page="1" pageScale="1" pageWidth="1169" pageHeight="827" math="0" shadow="0">
      <root>
        <mxCell id="WIyWlLk6GJQsqaUBKTNV-0" />
        <mxCell id="WIyWlLk6GJQsqaUBKTNV-1" parent="WIyWlLk6GJQsqaUBKTNV-0" />
        <mxCell id="D-ogVkgkDjXILA013YRQ-28" value="ModelBase" style="swimlane;fontStyle=1;align=center;verticalAlign=top;childLayout=stackLayout;horizontal=1;startSize=26;horizontalStack=0;resizeParent=1;resizeLast=0;collapsible=1;marginBottom=0;rounded=0;shadow=0;strokeWidth=1;" parent="WIyWlLk6GJQsqaUBKTNV-1" vertex="1">
          <mxGeometry x="-532" y="180" width="340" height="248" as="geometry">
            <mxRectangle x="230" y="140" width="160" height="26" as="alternateBounds" />
          </mxGeometry>
        </mxCell>
        <mxCell id="D-ogVkgkDjXILA013YRQ-29" value="+ use_gpu : bool" style="text;align=left;verticalAlign=top;spacingLeft=4;spacingRight=4;overflow=hidden;rotatable=0;points=[[0,0.5],[1,0.5]];portConstraint=eastwest;" parent="D-ogVkgkDjXILA013YRQ-28" vertex="1">
          <mxGeometry y="26" width="340" height="26" as="geometry" />
        </mxCell>
        <mxCell id="D-ogVkgkDjXILA013YRQ-30" value="+ gpu_index : int" style="text;align=left;verticalAlign=top;spacingLeft=4;spacingRight=4;overflow=hidden;rotatable=0;points=[[0,0.5],[1,0.5]];portConstraint=eastwest;rounded=0;shadow=0;html=0;" parent="D-ogVkgkDjXILA013YRQ-28" vertex="1">
          <mxGeometry y="52" width="340" height="26" as="geometry" />
        </mxCell>
        <mxCell id="D-ogVkgkDjXILA013YRQ-31" value="+ sz_model : const char *" style="text;align=left;verticalAlign=top;spacingLeft=4;spacingRight=4;overflow=hidden;rotatable=0;points=[[0,0.5],[1,0.5]];portConstraint=eastwest;rounded=0;shadow=0;html=0;" parent="D-ogVkgkDjXILA013YRQ-28" vertex="1">
          <mxGeometry y="78" width="340" height="26" as="geometry" />
        </mxCell>
        <mxCell id="D-ogVkgkDjXILA013YRQ-32" value="+ sz_image: const char *" style="text;align=left;verticalAlign=top;spacingLeft=4;spacingRight=4;overflow=hidden;rotatable=0;points=[[0,0.5],[1,0.5]];portConstraint=eastwest;rounded=0;shadow=0;html=0;" parent="D-ogVkgkDjXILA013YRQ-28" vertex="1">
          <mxGeometry y="104" width="340" height="26" as="geometry" />
        </mxCell>
        <mxCell id="D-ogVkgkDjXILA013YRQ-33" value="+ sz_save_path: const char *" style="text;align=left;verticalAlign=top;spacingLeft=4;spacingRight=4;overflow=hidden;rotatable=0;points=[[0,0.5],[1,0.5]];portConstraint=eastwest;rounded=0;shadow=0;html=0;" parent="D-ogVkgkDjXILA013YRQ-28" vertex="1">
          <mxGeometry y="130" width="340" height="26" as="geometry" />
        </mxCell>
        <mxCell id="D-ogVkgkDjXILA013YRQ-34" value="" style="line;html=1;strokeWidth=1;align=left;verticalAlign=middle;spacingTop=-1;spacingLeft=3;spacingRight=3;rotatable=0;labelPosition=right;points=[];portConstraint=eastwest;" parent="D-ogVkgkDjXILA013YRQ-28" vertex="1">
          <mxGeometry y="156" width="340" height="8" as="geometry" />
        </mxCell>
        <mxCell id="D-ogVkgkDjXILA013YRQ-35" value="+ RunModel(const char *, const char *, const char *, bool, int)" style="text;align=left;verticalAlign=top;spacingLeft=4;spacingRight=4;overflow=hidden;rotatable=0;points=[[0,0.5],[1,0.5]];portConstraint=eastwest;" parent="D-ogVkgkDjXILA013YRQ-28" vertex="1">
          <mxGeometry y="164" width="340" height="28" as="geometry" />
        </mxCell>
        <mxCell id="D-ogVkgkDjXILA013YRQ-59" value="+ ShowInfo() : void" style="text;align=left;verticalAlign=top;spacingLeft=4;spacingRight=4;overflow=hidden;rotatable=0;points=[[0,0.5],[1,0.5]];portConstraint=eastwest;" parent="D-ogVkgkDjXILA013YRQ-28" vertex="1">
          <mxGeometry y="192" width="340" height="28" as="geometry" />
        </mxCell>
        <mxCell id="D-ogVkgkDjXILA013YRQ-62" value="+ WriteResultFile() : virtual void" style="text;align=left;verticalAlign=top;spacingLeft=4;spacingRight=4;overflow=hidden;rotatable=0;points=[[0,0.5],[1,0.5]];portConstraint=eastwest;" parent="D-ogVkgkDjXILA013YRQ-28" vertex="1">
          <mxGeometry y="220" width="340" height="28" as="geometry" />
        </mxCell>
        <mxCell id="D-ogVkgkDjXILA013YRQ-36" value="" style="endArrow=block;endSize=10;endFill=0;shadow=0;strokeWidth=1;rounded=0;edgeStyle=elbowEdgeStyle;elbow=vertical;exitX=0.5;exitY=0;exitDx=0;exitDy=0;" parent="WIyWlLk6GJQsqaUBKTNV-1" source="D-ogVkgkDjXILA013YRQ-45" target="D-ogVkgkDjXILA013YRQ-28" edge="1">
          <mxGeometry width="160" relative="1" as="geometry">
            <mxPoint x="-572" y="467" as="sourcePoint" />
            <mxPoint x="-562" y="310" as="targetPoint" />
            <Array as="points">
              <mxPoint x="-362" y="478" />
            </Array>
          </mxGeometry>
        </mxCell>
        <mxCell id="D-ogVkgkDjXILA013YRQ-37" value="" style="endArrow=block;endSize=10;endFill=0;shadow=0;strokeWidth=1;rounded=0;edgeStyle=elbowEdgeStyle;elbow=vertical;exitX=0.5;exitY=0;exitDx=0;exitDy=0;" parent="WIyWlLk6GJQsqaUBKTNV-1" source="D-ogVkgkDjXILA013YRQ-47" target="D-ogVkgkDjXILA013YRQ-28" edge="1">
          <mxGeometry width="160" relative="1" as="geometry">
            <mxPoint x="-352" y="467" as="sourcePoint" />
            <mxPoint x="-452" y="378" as="targetPoint" />
            <Array as="points">
              <mxPoint x="-362" y="478" />
            </Array>
          </mxGeometry>
        </mxCell>
        <mxCell id="D-ogVkgkDjXILA013YRQ-38" value="" style="endArrow=open;shadow=0;strokeWidth=1;rounded=0;endFill=1;edgeStyle=elbowEdgeStyle;elbow=vertical;exitX=1;exitY=0.5;exitDx=0;exitDy=0;" parent="WIyWlLk6GJQsqaUBKTNV-1" source="D-ogVkgkDjXILA013YRQ-54" edge="1" target="D-ogVkgkDjXILA013YRQ-33">
          <mxGeometry x="0.5" y="41" relative="1" as="geometry">
            <mxPoint x="-630" y="310" as="sourcePoint" />
            <mxPoint x="-590" y="380" as="targetPoint" />
            <mxPoint x="-40" y="32" as="offset" />
            <Array as="points">
              <mxPoint x="-610" y="314" />
            </Array>
          </mxGeometry>
        </mxCell>
        <mxCell id="D-ogVkgkDjXILA013YRQ-39" value="CleanCodeTestApp" style="swimlane;fontStyle=1;align=center;verticalAlign=top;childLayout=stackLayout;horizontal=1;startSize=26;horizontalStack=0;resizeParent=1;resizeLast=0;collapsible=1;marginBottom=0;rounded=0;shadow=0;strokeWidth=1;" parent="WIyWlLk6GJQsqaUBKTNV-1" vertex="1">
          <mxGeometry x="-1160" y="180" width="283" height="338" as="geometry">
            <mxRectangle x="550" y="140" width="160" height="26" as="alternateBounds" />
          </mxGeometry>
        </mxCell>
        <mxCell id="D-ogVkgkDjXILA013YRQ-41" value="+ model_factory : ModelFactory" style="text;align=left;verticalAlign=top;spacingLeft=4;spacingRight=4;overflow=hidden;rotatable=0;points=[[0,0.5],[1,0.5]];portConstraint=eastwest;rounded=0;shadow=0;html=0;" parent="D-ogVkgkDjXILA013YRQ-39" vertex="1">
          <mxGeometry y="26" width="283" height="26" as="geometry" />
        </mxCell>
        <mxCell id="D-ogVkgkDjXILA013YRQ-42" value="+ all_model_type : string" style="text;align=left;verticalAlign=top;spacingLeft=4;spacingRight=4;overflow=hidden;rotatable=0;points=[[0,0.5],[1,0.5]];portConstraint=eastwest;rounded=0;shadow=0;html=0;" parent="D-ogVkgkDjXILA013YRQ-39" vertex="1">
          <mxGeometry y="52" width="283" height="26" as="geometry" />
        </mxCell>
        <mxCell id="KFr7-NrDYInFaLeutiJz-15" value="+ all_model_path: const char *" style="text;align=left;verticalAlign=top;spacingLeft=4;spacingRight=4;overflow=hidden;rotatable=0;points=[[0,0.5],[1,0.5]];portConstraint=eastwest;rounded=0;shadow=0;html=0;" vertex="1" parent="D-ogVkgkDjXILA013YRQ-39">
          <mxGeometry y="78" width="283" height="26" as="geometry" />
        </mxCell>
        <mxCell id="KFr7-NrDYInFaLeutiJz-16" value="+ all_image_path: const char *" style="text;align=left;verticalAlign=top;spacingLeft=4;spacingRight=4;overflow=hidden;rotatable=0;points=[[0,0.5],[1,0.5]];portConstraint=eastwest;rounded=0;shadow=0;html=0;" vertex="1" parent="D-ogVkgkDjXILA013YRQ-39">
          <mxGeometry y="104" width="283" height="26" as="geometry" />
        </mxCell>
        <mxCell id="D-ogVkgkDjXILA013YRQ-73" value="+ SEGMENTATION_MODEL : const char *" style="text;align=left;verticalAlign=top;spacingLeft=4;spacingRight=4;overflow=hidden;rotatable=0;points=[[0,0.5],[1,0.5]];portConstraint=eastwest;rounded=0;shadow=0;html=0;" parent="D-ogVkgkDjXILA013YRQ-39" vertex="1">
          <mxGeometry y="130" width="283" height="26" as="geometry" />
        </mxCell>
        <mxCell id="D-ogVkgkDjXILA013YRQ-74" value="+ OBJECTDETECTION_MODEL : const char *" style="text;align=left;verticalAlign=top;spacingLeft=4;spacingRight=4;overflow=hidden;rotatable=0;points=[[0,0.5],[1,0.5]];portConstraint=eastwest;rounded=0;shadow=0;html=0;" parent="D-ogVkgkDjXILA013YRQ-39" vertex="1">
          <mxGeometry y="156" width="283" height="26" as="geometry" />
        </mxCell>
        <mxCell id="D-ogVkgkDjXILA013YRQ-75" value="+ CLASSIFICATION_MODEL : const char *" style="text;align=left;verticalAlign=top;spacingLeft=4;spacingRight=4;overflow=hidden;rotatable=0;points=[[0,0.5],[1,0.5]];portConstraint=eastwest;rounded=0;shadow=0;html=0;" parent="D-ogVkgkDjXILA013YRQ-39" vertex="1">
          <mxGeometry y="182" width="283" height="26" as="geometry" />
        </mxCell>
        <mxCell id="D-ogVkgkDjXILA013YRQ-76" value="+ ANOMALYDECTECTION_MODEL : const char *" style="text;align=left;verticalAlign=top;spacingLeft=4;spacingRight=4;overflow=hidden;rotatable=0;points=[[0,0.5],[1,0.5]];portConstraint=eastwest;rounded=0;shadow=0;html=0;" parent="D-ogVkgkDjXILA013YRQ-39" vertex="1">
          <mxGeometry y="208" width="283" height="26" as="geometry" />
        </mxCell>
        <mxCell id="KFr7-NrDYInFaLeutiJz-11" value="+ SEGMENTATION_IMAGE: const char *" style="text;align=left;verticalAlign=top;spacingLeft=4;spacingRight=4;overflow=hidden;rotatable=0;points=[[0,0.5],[1,0.5]];portConstraint=eastwest;rounded=0;shadow=0;html=0;" vertex="1" parent="D-ogVkgkDjXILA013YRQ-39">
          <mxGeometry y="234" width="283" height="26" as="geometry" />
        </mxCell>
        <mxCell id="KFr7-NrDYInFaLeutiJz-12" value="+ OBJECTDETECTION_IMAGE: const char *" style="text;align=left;verticalAlign=top;spacingLeft=4;spacingRight=4;overflow=hidden;rotatable=0;points=[[0,0.5],[1,0.5]];portConstraint=eastwest;rounded=0;shadow=0;html=0;" vertex="1" parent="D-ogVkgkDjXILA013YRQ-39">
          <mxGeometry y="260" width="283" height="26" as="geometry" />
        </mxCell>
        <mxCell id="KFr7-NrDYInFaLeutiJz-13" value="+ CLASSIFICATION_IMAGE: const char *" style="text;align=left;verticalAlign=top;spacingLeft=4;spacingRight=4;overflow=hidden;rotatable=0;points=[[0,0.5],[1,0.5]];portConstraint=eastwest;rounded=0;shadow=0;html=0;" vertex="1" parent="D-ogVkgkDjXILA013YRQ-39">
          <mxGeometry y="286" width="283" height="26" as="geometry" />
        </mxCell>
        <mxCell id="KFr7-NrDYInFaLeutiJz-14" value="+ ANOMALYDECTECTION_IMAGE: const char *" style="text;align=left;verticalAlign=top;spacingLeft=4;spacingRight=4;overflow=hidden;rotatable=0;points=[[0,0.5],[1,0.5]];portConstraint=eastwest;rounded=0;shadow=0;html=0;" vertex="1" parent="D-ogVkgkDjXILA013YRQ-39">
          <mxGeometry y="312" width="283" height="26" as="geometry" />
        </mxCell>
        <mxCell id="D-ogVkgkDjXILA013YRQ-43" value="" style="endArrow=open;shadow=0;strokeWidth=1;rounded=0;endFill=1;edgeStyle=elbowEdgeStyle;elbow=vertical;entryX=0;entryY=0.5;entryDx=0;entryDy=0;" parent="WIyWlLk6GJQsqaUBKTNV-1" source="D-ogVkgkDjXILA013YRQ-39" target="D-ogVkgkDjXILA013YRQ-54" edge="1">
          <mxGeometry x="0.5" y="41" relative="1" as="geometry">
            <mxPoint x="-482" y="299" as="sourcePoint" />
            <mxPoint x="-712" y="272.7499999999999" as="targetPoint" />
            <mxPoint x="-40" y="32" as="offset" />
          </mxGeometry>
        </mxCell>
        <mxCell id="D-ogVkgkDjXILA013YRQ-44" value="" style="endArrow=block;endSize=10;endFill=0;shadow=0;strokeWidth=1;rounded=0;edgeStyle=elbowEdgeStyle;elbow=vertical;exitX=0.5;exitY=0;exitDx=0;exitDy=0;entryX=0.5;entryY=1;entryDx=0;entryDy=0;" parent="WIyWlLk6GJQsqaUBKTNV-1" source="D-ogVkgkDjXILA013YRQ-49" target="D-ogVkgkDjXILA013YRQ-28" edge="1">
          <mxGeometry width="160" relative="1" as="geometry">
            <mxPoint x="-242" y="467" as="sourcePoint" />
            <mxPoint x="-462" y="365" as="targetPoint" />
            <Array as="points">
              <mxPoint x="-320" y="478" />
            </Array>
          </mxGeometry>
        </mxCell>
        <mxCell id="D-ogVkgkDjXILA013YRQ-45" value="Segmentation" style="swimlane;fontStyle=1;childLayout=stackLayout;horizontal=1;startSize=30;horizontalStack=0;resizeParent=1;resizeParentMax=0;resizeLast=0;collapsible=1;marginBottom=0;" parent="WIyWlLk6GJQsqaUBKTNV-1" vertex="1">
          <mxGeometry x="-676" y="508" width="148" height="60" as="geometry" />
        </mxCell>
        <mxCell id="D-ogVkgkDjXILA013YRQ-64" value="+ WriteResultFile() : void" style="text;strokeColor=none;fillColor=none;align=left;verticalAlign=middle;spacingLeft=4;spacingRight=4;overflow=hidden;points=[[0,0.5],[1,0.5]];portConstraint=eastwest;rotatable=0;" parent="D-ogVkgkDjXILA013YRQ-45" vertex="1">
          <mxGeometry y="30" width="148" height="30" as="geometry" />
        </mxCell>
        <mxCell id="D-ogVkgkDjXILA013YRQ-47" value="Objectdetection" style="swimlane;fontStyle=1;childLayout=stackLayout;horizontal=1;startSize=30;horizontalStack=0;resizeParent=1;resizeParentMax=0;resizeLast=0;collapsible=1;marginBottom=0;" parent="WIyWlLk6GJQsqaUBKTNV-1" vertex="1">
          <mxGeometry x="-516" y="508" width="148" height="60" as="geometry" />
        </mxCell>
        <mxCell id="D-ogVkgkDjXILA013YRQ-66" value="+ WriteResultFile() : void" style="text;strokeColor=none;fillColor=none;align=left;verticalAlign=middle;spacingLeft=4;spacingRight=4;overflow=hidden;points=[[0,0.5],[1,0.5]];portConstraint=eastwest;rotatable=0;" parent="D-ogVkgkDjXILA013YRQ-47" vertex="1">
          <mxGeometry y="30" width="148" height="30" as="geometry" />
        </mxCell>
        <mxCell id="D-ogVkgkDjXILA013YRQ-49" value="Classification" style="swimlane;fontStyle=1;childLayout=stackLayout;horizontal=1;startSize=30;horizontalStack=0;resizeParent=1;resizeParentMax=0;resizeLast=0;collapsible=1;marginBottom=0;" parent="WIyWlLk6GJQsqaUBKTNV-1" vertex="1">
          <mxGeometry x="-356" y="508" width="148" height="60" as="geometry" />
        </mxCell>
        <mxCell id="D-ogVkgkDjXILA013YRQ-70" value="+ WriteResultFile() : void" style="text;strokeColor=none;fillColor=none;align=left;verticalAlign=middle;spacingLeft=4;spacingRight=4;overflow=hidden;points=[[0,0.5],[1,0.5]];portConstraint=eastwest;rotatable=0;" parent="D-ogVkgkDjXILA013YRQ-49" vertex="1">
          <mxGeometry y="30" width="148" height="30" as="geometry" />
        </mxCell>
        <mxCell id="D-ogVkgkDjXILA013YRQ-51" value="" style="endArrow=block;endSize=10;endFill=0;shadow=0;strokeWidth=1;rounded=0;edgeStyle=elbowEdgeStyle;elbow=vertical;exitX=0.5;exitY=0;exitDx=0;exitDy=0;entryX=0.5;entryY=1;entryDx=0;entryDy=0;" parent="WIyWlLk6GJQsqaUBKTNV-1" source="D-ogVkgkDjXILA013YRQ-52" target="D-ogVkgkDjXILA013YRQ-28" edge="1">
          <mxGeometry width="160" relative="1" as="geometry">
            <mxPoint x="-92" y="467" as="sourcePoint" />
            <mxPoint x="-462" y="365" as="targetPoint" />
            <Array as="points">
              <mxPoint x="-240" y="478" />
            </Array>
          </mxGeometry>
        </mxCell>
        <mxCell id="D-ogVkgkDjXILA013YRQ-52" value="AnomalyDetection" style="swimlane;fontStyle=1;childLayout=stackLayout;horizontal=1;startSize=30;horizontalStack=0;resizeParent=1;resizeParentMax=0;resizeLast=0;collapsible=1;marginBottom=0;" parent="WIyWlLk6GJQsqaUBKTNV-1" vertex="1">
          <mxGeometry x="-196" y="508" width="148" height="60" as="geometry" />
        </mxCell>
        <mxCell id="D-ogVkgkDjXILA013YRQ-72" value="+ WriteResultFile() : void" style="text;strokeColor=none;fillColor=none;align=left;verticalAlign=middle;spacingLeft=4;spacingRight=4;overflow=hidden;points=[[0,0.5],[1,0.5]];portConstraint=eastwest;rotatable=0;" parent="D-ogVkgkDjXILA013YRQ-52" vertex="1">
          <mxGeometry y="30" width="148" height="30" as="geometry" />
        </mxCell>
        <mxCell id="D-ogVkgkDjXILA013YRQ-54" value="ModelFactory" style="swimlane;fontStyle=1;childLayout=stackLayout;horizontal=1;startSize=30;horizontalStack=0;resizeParent=1;resizeParentMax=0;resizeLast=0;collapsible=1;marginBottom=0;" parent="WIyWlLk6GJQsqaUBKTNV-1" vertex="1">
          <mxGeometry x="-810" y="250" width="200" height="128" as="geometry" />
        </mxCell>
        <mxCell id="D-ogVkgkDjXILA013YRQ-55" value="+ current_model : ModelBase*" style="text;strokeColor=none;fillColor=none;align=left;verticalAlign=middle;spacingLeft=4;spacingRight=4;overflow=hidden;points=[[0,0.5],[1,0.5]];portConstraint=eastwest;rotatable=0;" parent="D-ogVkgkDjXILA013YRQ-54" vertex="1">
          <mxGeometry y="30" width="200" height="30" as="geometry" />
        </mxCell>
        <mxCell id="KFr7-NrDYInFaLeutiJz-10" value="" style="line;strokeWidth=1;fillColor=none;align=left;verticalAlign=middle;spacingTop=-1;spacingLeft=3;spacingRight=3;rotatable=0;labelPosition=right;points=[];portConstraint=eastwest;" vertex="1" parent="D-ogVkgkDjXILA013YRQ-54">
          <mxGeometry y="60" width="200" height="8" as="geometry" />
        </mxCell>
        <mxCell id="KFr7-NrDYInFaLeutiJz-0" value="+ GenerateModel(string) : void" style="text;strokeColor=none;fillColor=none;align=left;verticalAlign=middle;spacingLeft=4;spacingRight=4;overflow=hidden;points=[[0,0.5],[1,0.5]];portConstraint=eastwest;rotatable=0;" vertex="1" parent="D-ogVkgkDjXILA013YRQ-54">
          <mxGeometry y="68" width="200" height="30" as="geometry" />
        </mxCell>
        <mxCell id="KFr7-NrDYInFaLeutiJz-1" value="+ FreeModel() : void" style="text;strokeColor=none;fillColor=none;align=left;verticalAlign=middle;spacingLeft=4;spacingRight=4;overflow=hidden;points=[[0,0.5],[1,0.5]];portConstraint=eastwest;rotatable=0;" vertex="1" parent="D-ogVkgkDjXILA013YRQ-54">
          <mxGeometry y="98" width="200" height="30" as="geometry" />
        </mxCell>
      </root>
    </mxGraphModel>
  </diagram>
</mxfile>
